<svg width="16" height="17" viewBox="0 0 16 17" fill="none" xmlns="http://www.w3.org/2000/svg">
<path d="M9.25 13C9.65625 13 10 12.6875 10 12.25V7H12.7188C13.2812 7 13.5625 6.34375 13.1562 5.9375L8.40625 1.1875C8.1875 0.96875 7.78125 0.96875 7.5625 1.1875L2.8125 5.9375C2.40625 6.34375 2.6875 7 3.25 7H6V12.25C6 12.6875 6.3125 13 6.75 13H9.25ZM16 12.75C16 12.3438 15.6562 12 15.25 12H11V12.25C11 13.2188 10.1875 14 9.25 14H6.75C5.78125 14 5 13.2188 5 12.25V12H0.75C0.3125 12 0 12.3438 0 12.75V16.25C0 16.6875 0.3125 17 0.75 17H15.25C15.6562 17 16 16.6875 16 16.25V12.75ZM12.125 15.5C12.125 15.8438 11.8438 16.125 11.5 16.125C11.1562 16.125 10.875 15.8438 10.875 15.5C10.875 15.1562 11.1562 14.875 11.5 14.875C11.8438 14.875 12.125 15.1562 12.125 15.5ZM14.125 15.5C14.125 15.8438 13.8438 16.125 13.5 16.125C13.1562 16.125 12.875 15.8438 12.875 15.5C12.875 15.1562 13.1562 14.875 13.5 14.875C13.8438 14.875 14.125 15.1562 14.125 15.5Z" fill="white"/>
</svg>